# xmcd
# 
# Track frame offsets:
#     150
#     19875
#     38025
#     51825
#     63375
#     81675
#     106200
#     121975
#     135267
#     145890
#     157425
#     175117
#     196987
#     214462
#     229877
#     247175
#     272890
#     299402
# 
# Disc length: 4203
# 
# Revision: 5
# Processed by: cddbd v1.5.2PL0 Copyright (c) Steve Scherf et al.
# Submitted via: fre:ac v1.0.17
# 
DISCID=1d106912
DTITLE=Willie Nelson - The Best Of Willie Nelson
DYEAR=1996
DGENRE=Country
TTITLE0=Georgia On My Mind
TTITLE1=Help Me Make It Through The Night
TTITLE2=Nelson, Willie feat. Waylon Jennings, Kris Kristofferson and Johnny Cash - Highwayman
TTITLE3=Don't Get Around Much Any More
TTITLE4=Someone To Watch Over Me
TTITLE5=For The Good Times
TTITLE6=Mammas Don't Let Your Babies Grow Up To Be Cowboys
TTITLE7=A Good Hearted Woman
TTITLE8=Blue Eyes Crying In The Rain
TTITLE9=Mona Lisa
TTITLE10=Stardust
TTITLE11=City Of New Orleans
TTITLE12=As Time Goes By
TTITLE13=Moonlight In Vermont
TTITLE14=Unchained Melody
TTITLE15=Amazing Grace
TTITLE16=Loving Her Was Easier (Than Anything I'll Ever Do)
TTITLE17=Always On My Mind
EXTD=
EXTT0=
EXTT1=
EXTT2=
EXTT3=
EXTT4=
EXTT5=
EXTT6=
EXTT7=
EXTT8=
EXTT9=
EXTT10=
EXTT11=
EXTT12=
EXTT13=
EXTT14=
EXTT15=
EXTT16=
EXTT17=
PLAYORDER=
